<?xml version="1.0" encoding="utf-8"?>
<!-- Generator: Adobe Illustrator 27.0.1, SVG Export Plug-In . SVG Version: 6.00 Build 0)  -->
<svg version="1.1" id="Layer_1" xmlns="http://www.w3.org/2000/svg" xmlns:xlink="http://www.w3.org/1999/xlink" x="0px" y="0px"
	 viewBox="0 0 425.5 211.4" style="enable-background:new 0 0 425.5 211.4;" xml:space="preserve">
<style type="text/css">
	.st0{fill-rule:evenodd;clip-rule:evenodd;fill:#0068FF;}
	.st1{opacity:0.12;fill-rule:evenodd;clip-rule:evenodd;fill:url(#SVGID_1_);enable-background:new    ;}
	.st2{fill-rule:evenodd;clip-rule:evenodd;fill:#FFFFFF;}
	.st3{fill:#0068FF;}
	.st4{fill:none;}
	.st5{fill:#FFFFFF;}
	
		.st6{opacity:0.12;fill-rule:evenodd;clip-rule:evenodd;fill:url(#SVGID_00000021840756177189701720000017772281800877218226_);enable-background:new    ;}
</style>
<g>
	<path class="st0" d="M147.1,21h5.7c7.8,0,12.4,1.1,16.4,3.3c4.1,2.2,7.3,5.3,9.4,9.4c2.2,4.1,3.3,8.6,3.3,16.4v5.7
		c0,7.8-1.1,12.4-3.3,16.4c-2.2,4.1-5.3,7.3-9.4,9.4c-4.1,2.2-8.6,3.3-16.4,3.3h-5.7c-7.8,0-12.4-1.1-16.4-3.3
		c-4.1-2.2-7.3-5.3-9.4-9.4c-2.2-4.1-3.3-8.6-3.3-16.4v-5.7c0-7.8,1.1-12.4,3.3-16.4c2.2-4.1,5.3-7.3,9.4-9.4
		C134.7,22.1,139.3,21,147.1,21z"/>
	<linearGradient id="SVGID_1_" gradientUnits="userSpaceOnUse" x1="127.1372" y1="69.9204" x2="181.976" y2="69.9204">
		<stop  offset="0" style="stop-color:#000000"/>
		<stop  offset="0.9379" style="stop-color:#000000;stop-opacity:6.207597e-02"/>
		<stop  offset="1" style="stop-color:#000000;stop-opacity:0"/>
	</linearGradient>
	<path class="st1" d="M182,54.9v0.9c0,7.8-1.1,12.4-3.3,16.4c-2.2,4.1-5.3,7.3-9.4,9.4c-4.1,2.2-8.6,3.3-16.4,3.3h-5.7
		c-6.4,0-10.6-0.8-14.2-2.2l-5.8-6L182,54.9z"/>
	<path class="st2" d="M127.7,77c2.9,0.3,6.6-0.5,9.2-1.8c10.7,5.9,26.9,6.1,37.6,0.3c1.3-0.7,2.4-1.8,3.1-3.1c0,0,0,0,0,0
		c2.1-4,3.3-8.5,3.3-16.1v-5.6c0-7.7-0.9-12.3-3-16.2c-2.1-4-5.2-7.1-9.2-9.2c-4-2.1-8.7-3.1-16.4-3.1h-5.6
		c-6.1,0-10.2,0.7-13.6,2.1c-0.5,0.2-0.9,0.5-1.3,0.8l0,0c-10.4,10.1-11.2,31.9-2.4,43.7c0,0,0,0,0,0.1c1.4,2,0,5.5-2,7.6
		C127.1,76.7,127.2,76.9,127.7,77z"/>
	<g>
		<path class="st3" d="M144.3,42.7h-12.5v2.7h8.7L131.9,56c-0.3,0.4-0.5,0.8-0.5,1.6v0.7h11.8c0.6,0,1.1-0.5,1.1-1.1v-1.4h-9.1
			l8.1-10.1c0.1-0.1,0.3-0.4,0.4-0.5l0-0.1c0.5-0.7,0.6-1.3,0.6-2V42.7z"/>
		<path class="st3" d="M160.2,58.2h1.8V42.7h-2.7v14.7C159.3,57.8,159.7,58.2,160.2,58.2z"/>
		<path class="st3" d="M151,46.1c-3.4,0-6.1,2.7-6.1,6.1c0,3.4,2.7,6.1,6.1,6.1s6.1-2.7,6.1-6.1C157.2,48.9,154.4,46.1,151,46.1z
			 M151,55.8c-2,0-3.6-1.6-3.6-3.6s1.6-3.6,3.6-3.6c2,0,3.6,1.6,3.6,3.6S153,55.8,151,55.8z"/>
		<path class="st3" d="M169.9,46c-3.4,0-6.2,2.8-6.2,6.2c0,3.4,2.8,6.2,6.2,6.2c3.4,0,6.2-2.8,6.2-6.2C176.1,48.8,173.3,46,169.9,46
			z M169.9,55.8c-2,0-3.6-1.6-3.6-3.6c0-2,1.6-3.6,3.6-3.6c2,0,3.6,1.6,3.6,3.6C173.5,54.2,171.9,55.8,169.9,55.8z"/>
		<path class="st3" d="M155.7,58.2h1.4V46.5h-2.5v10.7C154.6,57.8,155.1,58.2,155.7,58.2z"/>
	</g>
</g>
<g>
	<rect x="27.4" y="21" class="st4" width="64" height="64"/>
	<g>
		<path class="st3" d="M74.9,21h-31c-7.6,0-13.7,6.2-13.7,13.7v31c0,7.6,6.2,13.7,13.7,13.7h9.2c0,0.1,0.1,0.2,0.2,0.2l4.7,4.7
			c0.7,0.7,1.9,0.7,2.6,0l4.7-4.7c0.1-0.1,0.1-0.2,0.2-0.2h9.5c7.6,0,13.7-6.2,13.7-13.7v-31C88.6,27.1,82.5,21,74.9,21z"/>
		<path class="st5" d="M71.4,35.7H48v5h16.2l-16,19.8c-0.5,0.7-0.9,1.4-0.9,3v1.3h22.1c1.1,0,2-0.9,2-2v-2.7H54.4l15-18.9
			c0.2-0.3,0.6-0.8,0.8-1l0.1-0.1c0.9-1.3,1-2.4,1-3.7V35.7z"/>
	</g>
</g>
<g>
	<circle class="st3" cx="247" cy="53" r="32"/>
	
		<linearGradient id="SVGID_00000183216576125325915940000002845956223010770833_" gradientUnits="userSpaceOnUse" x1="252.6283" y1="63.2723" x2="256.8315" y2="70.0441">
		<stop  offset="0" style="stop-color:#000000"/>
		<stop  offset="0.9379" style="stop-color:#000000;stop-opacity:6.207597e-02"/>
		<stop  offset="1" style="stop-color:#000000;stop-opacity:0"/>
	</linearGradient>
	
		<path style="opacity:0.12;fill-rule:evenodd;clip-rule:evenodd;fill:url(#SVGID_00000183216576125325915940000002845956223010770833_);enable-background:new    ;" d="
		M277.8,53.8L228,73.7l8.7,9.3c3.1,1,6.4,1.6,9.8,1.6C263.7,84.6,277.6,70.9,277.8,53.8z"/>
	<path class="st2" d="M269.3,74.6c5.3-5.6,8.9-13,8.9-21.3c0-17.4-14.1-31.5-31.5-31.5c-6.9,0-12.9,2.6-18.1,6.3
		c-6,11.2-5.7,27.7,1.7,37.6c0,0,0,0,0,0.1c1.4,2,0,5.6-2,7.6c-0.3,0.3-0.2,0.5,0.3,0.6c2.9,0.3,6.6-0.5,9.2-1.8
		C246.7,77.1,259,77.8,269.3,74.6z"/>
	<g>
		<path class="st3" d="M244.4,45h-10.2v2.2h7.1l-7,8.6c-0.2,0.3-0.4,0.6-0.4,1.3v0.6h9.6c0.5,0,0.9-0.4,0.9-0.9v-1.2h-7.4l6.5-8.2
			c0.1-0.1,0.3-0.3,0.4-0.4l0-0.1c0.4-0.6,0.5-1,0.5-1.6V45z"/>
		<path class="st3" d="M257.4,57.6h1.4V45h-2.2v11.9C256.7,57.3,257,57.6,257.4,57.6z"/>
		<path class="st3" d="M249.9,47.8c-2.7,0-5,2.2-5,5s2.2,5,5,5s5-2.2,5-5C254.9,50,252.7,47.8,249.9,47.8z M249.9,55.7
			c-1.6,0-2.9-1.3-2.9-2.9s1.3-2.9,2.9-2.9s2.9,1.3,2.9,2.9S251.6,55.7,249.9,55.7z"/>
		<path class="st3" d="M265.3,47.7c-2.8,0-5,2.2-5,5c0,2.8,2.2,5,5,5c2.8,0,5-2.2,5-5C270.3,49.9,268,47.7,265.3,47.7z M265.3,55.7
			c-1.6,0-2.9-1.3-2.9-2.9c0-1.6,1.3-2.9,2.9-2.9c1.6,0,2.9,1.3,2.9,2.9C268.2,54.3,266.9,55.7,265.3,55.7z"/>
		<path class="st3" d="M253.7,57.6h1.2v-9.6h-2v8.7C252.9,57.2,253.3,57.6,253.7,57.6z"/>
	</g>
</g>
<g>
	<path d="M176.1,120.4c-2.1-4.1-5.3-7.2-9.4-9.4c-4.1-2.2-8.6-3.3-16.4-3.3h-5.7c-7.8,0-12.4,1.1-16.4,3.3c-4.1,2.1-7.2,5.3-9.4,9.4
		c-2.2,4.1-3.3,8.6-3.3,16.4v5.7c0,7.8,1.1,12.4,3.3,16.4c2.1,4.1,5.3,7.2,9.4,9.4c4.1,2.2,8.6,3.3,16.4,3.3h5.7
		c7.8,0,12.4-1.1,16.4-3.3c4.1-2.1,7.2-5.3,9.4-9.4c2.2-4.1,3.3-8.6,3.3-16.4v-5.7C179.4,129,178.3,124.4,176.1,120.4z M178.3,142.9
		c0,7.7-1.1,12.1-3.3,16.1c0,0,0,0,0,0c-0.7,1.3-1.8,2.4-3.1,3.1c-10.7,5.8-26.9,5.6-37.6-0.3c-2.6,1.3-6.2,2.1-9.2,1.8
		c-0.5,0-0.6-0.2-0.3-0.6c2.1-2.1,3.4-5.6,2-7.6c0,0,0,0,0-0.1c-8.9-11.9-8.1-33.7,2.4-43.7l0,0c0.4-0.4,0.8-0.6,1.3-0.8
		c3.4-1.4,7.5-2.1,13.6-2.1h5.6c7.7,0,12.4,1,16.4,3.1c4,2.1,7.1,5.2,9.2,9.2c2.1,4,3,8.6,3,16.2V142.9z"/>
	<path d="M140.7,132.3c0.1-0.1,0.3-0.4,0.4-0.5l0-0.1c0.5-0.7,0.6-1.3,0.6-2v-0.4h-12.5v2.7h8.7l-8.6,10.6c-0.3,0.4-0.5,0.8-0.5,1.6
		v0.7h11.8c0.6,0,1.1-0.5,1.1-1.1v-1.4h-9.1L140.7,132.3z"/>
	<path d="M156.8,144c0,0.5,0.4,0.9,0.9,0.9h1.8v-15.6h-2.7V144z"/>
	<path d="M167.4,132.7c-3.4,0-6.2,2.8-6.2,6.2c0,3.4,2.8,6.2,6.2,6.2c3.4,0,6.2-2.8,6.2-6.2C173.5,135.4,170.8,132.7,167.4,132.7z
		 M167.4,142.5c-2,0-3.6-1.6-3.6-3.6c0-2,1.6-3.6,3.6-3.6c2,0,3.6,1.6,3.6,3.6C171,140.9,169.4,142.5,167.4,142.5z"/>
	<path d="M152.1,134c-1-0.7-2.3-1.2-3.6-1.2c-3.4,0-6.1,2.7-6.1,6.1c0,3.4,2.7,6.1,6.1,6.1c1.4,0,2.6-0.4,3.6-1.2v0
		c0,0.6,0.5,1.1,1.1,1.1h1.4v-11.8h-2.5V134z M148.5,142.5c-2,0-3.6-1.6-3.6-3.6c0-2,1.6-3.6,3.6-3.6c2,0,3.6,1.6,3.6,3.6
		C152.1,140.9,150.5,142.5,148.5,142.5z"/>
</g>
<g>
	<rect x="27.4" y="107.6" class="st4" width="64" height="64"/>
	<path d="M74.9,107.6h-31c-7.6,0-13.7,6.2-13.7,13.7v31c0,7.6,6.2,13.7,13.7,13.7h9.2c0,0.1,0.1,0.2,0.2,0.2l4.7,4.7
		c0.7,0.7,1.9,0.7,2.6,0l4.7-4.7c0.1-0.1,0.1-0.2,0.2-0.2h9.5c7.6,0,13.7-6.2,13.7-13.7v-31C88.6,113.8,82.5,107.6,74.9,107.6z
		 M71.4,149.4c0,1.1-0.9,2-2,2H47.3v-1.3c0-1.5,0.4-2.2,0.9-3l16-19.8H48v-5h23.4v0.7c0,1.3-0.2,2.4-1,3.7l-0.1,0.1
		c-0.2,0.2-0.6,0.7-0.8,1l-15,18.9h17.1V149.4z"/>
</g>
<g>
	<path d="M247,107.6c-17.7,0-32,14.3-32,32s14.3,32,32,32c17.7,0,32-14.3,32-32S264.7,107.6,247,107.6z M268,161.7
		c-10,2.7-21.7,1.9-30.1-2.8c-2.6,1.3-6.3,2.1-9.2,1.8c-0.5,0-0.6-0.2-0.3-0.6c2.1-2.1,3.4-5.6,2-7.6c0,0,0,0,0-0.1
		c-7.2-9.6-7.7-25.3-2.3-36.5c0.4-0.7,0.9-1.3,1.6-1.8c5-3.4,10.7-5.7,17.1-5.7c17.4,0,31.5,14.1,31.5,31.5c0,7.8-3.2,14.8-8,20.3
		C269.6,161,268.8,161.4,268,161.7z"/>
	<path d="M243.6,134c0.1-0.1,0.3-0.3,0.4-0.4l0-0.1c0.4-0.6,0.5-1,0.5-1.6v-0.3h-10.2v2.2h7.1l-7,8.6c-0.2,0.3-0.4,0.6-0.4,1.3v0.6
		h9.6c0.5,0,0.9-0.4,0.9-0.9v-1.2h-7.4L243.6,134z"/>
	<path d="M256.7,143.5c0,0.4,0.3,0.7,0.7,0.7h1.4v-12.6h-2.2V143.5z"/>
	<path d="M270.2,138.7c-0.3-2.2-2.1-4-4.3-4.3c-3.3-0.4-6,2.3-5.6,5.6c0.3,2.2,2.1,4,4.3,4.3C267.9,144.7,270.6,142,270.2,138.7z
		 M268.2,139.7c-0.1,1.4-1.2,2.5-2.6,2.6c-1.9,0.2-3.4-1.4-3.2-3.2c0.1-1.4,1.2-2.5,2.6-2.6C266.8,136.3,268.4,137.8,268.2,139.7z"
		/>
	<path d="M252.9,135.4c-0.8-0.6-1.8-1-2.9-1c-2.8,0-5.1,2.3-5,5.1c0.1,2.6,2.2,4.7,4.8,4.8c1.2,0,2.3-0.3,3.1-1v0
		c0,0.5,0.4,0.9,0.9,0.9h1.2v-9.6h-2V135.4z M249.9,142.3c-1.8,0-3.2-1.6-2.9-3.5c0.2-1.1,1.1-2,2.3-2.3c1.9-0.4,3.5,1.1,3.5,2.9
		C252.8,141,251.6,142.3,249.9,142.3z"/>
</g>
<g>
	<g>
		<path class="st3" d="M323,46c0.2-0.2,0.5-0.6,0.6-0.8l0.1-0.1c0.7-1,0.8-1.8,0.8-2.8v-0.5h-17.9v3.8H319l-12.3,15.2
			c-0.4,0.6-0.7,1.1-0.7,2.3v1H323c0.8,0,1.5-0.7,1.5-1.5v-2.1h-13.1L323,46z"/>
		<path class="st3" d="M346,62.8c0,0.7,0.6,1.3,1.3,1.3h2.6V41.7H346V62.8z"/>
		<path class="st3" d="M361.2,46.6c-4.9,0-8.8,4-8.8,8.8s4,8.8,8.8,8.8c4.9,0,8.8-4,8.8-8.8S366.1,46.6,361.2,46.6z M361.2,60.6
			c-2.9,0-5.2-2.3-5.2-5.2c0-2.9,2.3-5.2,5.2-5.2c2.9,0,5.2,2.3,5.2,5.2C366.4,58.3,364.1,60.6,361.2,60.6z"/>
		<path class="st3" d="M339.3,48.4c-1.4-1.1-3.2-1.7-5.2-1.7c-4.8,0-8.7,3.9-8.7,8.7c0,4.8,3.9,8.7,8.7,8.7c1.9,0,3.7-0.6,5.2-1.7
			v0.1c0,0.8,0.7,1.5,1.5,1.5h2.1V47.2h-3.6V48.4z M334.2,60.6c-2.8,0-5.1-2.3-5.1-5.1s2.3-5.1,5.1-5.1c2.8,0,5.1,2.3,5.1,5.1
			S337,60.6,334.2,60.6z"/>
	</g>
	<rect x="306" y="21" class="st4" width="64" height="64"/>
</g>
<g>
	<g>
		<path d="M323,132.6c0.2-0.2,0.5-0.6,0.6-0.8l0.1-0.1c0.7-1,0.8-1.8,0.8-2.8v-0.5h-17.9v3.8H319l-12.3,15.2
			c-0.4,0.6-0.7,1.1-0.7,2.3v1H323c0.8,0,1.5-0.7,1.5-1.5v-2.1h-13.1L323,132.6z"/>
		<path d="M346,149.4c0,0.7,0.6,1.3,1.3,1.3h2.6v-22.3H346V149.4z"/>
		<path d="M361.2,133.2c-4.9,0-8.8,4-8.8,8.8s4,8.8,8.8,8.8c4.9,0,8.8-4,8.8-8.8S366.1,133.2,361.2,133.2z M361.2,147.3
			c-2.9,0-5.2-2.3-5.2-5.2c0-2.9,2.3-5.2,5.2-5.2c2.9,0,5.2,2.3,5.2,5.2C366.4,144.9,364.1,147.3,361.2,147.3z"/>
		<path d="M339.3,135.1c-1.4-1.1-3.2-1.7-5.2-1.7c-4.8,0-8.7,3.9-8.7,8.7c0,4.8,3.9,8.7,8.7,8.7c1.9,0,3.7-0.6,5.2-1.7v0.1
			c0,0.8,0.7,1.5,1.5,1.5h2.1v-16.9h-3.6V135.1z M334.2,147.3c-2.8,0-5.1-2.3-5.1-5.1s2.3-5.1,5.1-5.1c2.8,0,5.1,2.3,5.1,5.1
			S337,147.3,334.2,147.3z"/>
	</g>
	<rect x="306" y="107.6" class="st4" width="64" height="64"/>
</g>
</svg>
